<?xml version="1.0" encoding="utf-8"?>
<!-- Generator: Adobe Illustrator 16.0.0, SVG Export Plug-In . SVG Version: 6.00 Build 0)  -->
<!DOCTYPE svg PUBLIC "-//W3C//DTD SVG 1.1//EN" "http://www.w3.org/Graphics/SVG/1.1/DTD/svg11.dtd">
<svg version="1.1" id="Layer_1" xmlns="http://www.w3.org/2000/svg" xmlns:xlink="http://www.w3.org/1999/xlink" x="0px" y="0px"
	 width="140px" height="46px" viewBox="0 0 140 46" enable-background="new 0 0 140 46" xml:space="preserve">
<g>
	<path fill="#FFFFFF" d="M60.617,14.443c-0.761,0-1.495-0.105-2.202-0.319c-0.705-0.211-1.264-0.508-1.67-0.883l0.823-1.321
		c0.361,0.268,0.829,0.492,1.407,0.674c0.576,0.185,1.085,0.278,1.519,0.278c0.688,0,1.195-0.121,1.522-0.365
		c0.329-0.241,0.493-0.609,0.493-1.101c0-0.194-0.017-0.351-0.046-0.469c-0.031-0.118-0.101-0.241-0.206-0.369
		c-0.108-0.129-0.267-0.247-0.479-0.355c-0.211-0.108-0.492-0.223-0.851-0.345c-0.15-0.048-0.409-0.128-0.77-0.238
		c-0.365-0.111-0.633-0.197-0.799-0.255c-0.915-0.327-1.579-0.717-1.991-1.162c-0.41-0.448-0.615-1.053-0.615-1.816
		c0-0.619,0.171-1.149,0.512-1.588c0.346-0.438,0.801-0.763,1.37-0.972c0.569-0.207,1.221-0.312,1.953-0.312
		c0.99,0,1.758,0.093,2.311,0.277c0.547,0.183,1.065,0.497,1.553,0.941l-0.989,1.218c-0.627-0.565-1.492-0.849-2.601-0.849
		c-0.606,0-1.097,0.1-1.477,0.298c-0.376,0.196-0.567,0.498-0.567,0.906c0,0.198,0.018,0.361,0.055,0.487
		c0.036,0.128,0.11,0.254,0.224,0.377c0.114,0.123,0.28,0.24,0.494,0.343c0.213,0.103,0.496,0.216,0.852,0.336
		c0.128,0.043,0.392,0.125,0.796,0.249c0.406,0.123,0.708,0.221,0.902,0.293c0.907,0.343,1.538,0.737,1.892,1.183
		c0.356,0.444,0.536,1.063,0.536,1.854c0,0.526-0.11,0.988-0.33,1.388c-0.219,0.397-0.515,0.711-0.89,0.939
		c-0.378,0.226-0.795,0.396-1.251,0.507C61.639,14.388,61.146,14.443,60.617,14.443"/>
	<path fill="#FFFFFF" d="M68.972,14.443c-0.946,0-1.684-0.256-2.212-0.772c-0.529-0.516-0.794-1.221-0.794-2.121V6.839h1.876v4.682
		c0,0.492,0.138,0.862,0.405,1.106c0.27,0.244,0.641,0.368,1.113,0.368c0.564,0,0.982-0.137,1.253-0.403
		c0.273-0.269,0.409-0.701,0.409-1.293V6.839h1.891v5.436l0.091,2.001h-1.951l-0.03-1.101c-0.025,0.105-0.082,0.225-0.173,0.35
		c-0.088,0.129-0.21,0.267-0.365,0.41c-0.156,0.146-0.367,0.267-0.634,0.362C69.584,14.396,69.291,14.443,68.972,14.443"/>
	<path fill="#FFFFFF" d="M77.62,14.443c-0.686,0-1.316-0.093-1.891-0.277c-0.572-0.183-1.029-0.401-1.372-0.658l0.473-1.29
		c0.322,0.237,0.725,0.432,1.212,0.583c0.487,0.153,0.958,0.229,1.411,0.229c0.422,0,0.741-0.069,0.958-0.204
		c0.215-0.136,0.324-0.355,0.324-0.66v-0.13c0-0.154-0.066-0.287-0.191-0.395c-0.129-0.109-0.42-0.234-0.877-0.373l-1.111-0.341
		c-0.287-0.089-0.523-0.169-0.711-0.243c-0.187-0.075-0.381-0.17-0.576-0.287c-0.193-0.115-0.348-0.243-0.455-0.381
		c-0.111-0.135-0.199-0.307-0.268-0.505c-0.07-0.202-0.103-0.434-0.103-0.695c0-0.376,0.075-0.706,0.231-0.993
		c0.155-0.283,0.369-0.507,0.643-0.674c0.275-0.164,0.581-0.284,0.916-0.365c0.337-0.08,0.704-0.121,1.106-0.121
		c0.497,0,0.995,0.061,1.493,0.183c0.499,0.12,0.936,0.298,1.313,0.538l-0.487,1.231c-0.308-0.156-0.665-0.286-1.071-0.392
		c-0.41-0.105-0.779-0.159-1.111-0.159c-0.431,0-0.746,0.051-0.938,0.151c-0.191,0.1-0.289,0.269-0.289,0.5
		c0,0.153,0.029,0.275,0.093,0.362c0.06,0.088,0.186,0.177,0.38,0.269c0.193,0.091,0.502,0.204,0.93,0.341l1.014,0.326
		c0.408,0.132,0.734,0.271,0.98,0.427c0.247,0.154,0.444,0.375,0.596,0.659c0.148,0.286,0.225,0.644,0.225,1.074
		c0,0.33-0.059,0.626-0.172,0.89c-0.115,0.267-0.264,0.486-0.449,0.654c-0.187,0.168-0.405,0.31-0.657,0.42
		c-0.252,0.111-0.509,0.188-0.767,0.236C78.162,14.42,77.896,14.443,77.62,14.443"/>
	<path fill="#FFFFFF" d="M86.241,14.269h-0.763c-0.304,0-0.57-0.007-0.794-0.023c-0.223-0.012-0.453-0.044-0.689-0.092
		s-0.436-0.113-0.603-0.191c-0.163-0.081-0.321-0.189-0.477-0.324c-0.153-0.136-0.273-0.297-0.366-0.488
		c-0.09-0.191-0.163-0.42-0.217-0.688c-0.053-0.264-0.079-0.567-0.079-0.913V8.042h-1.632V6.84h1.706v-1.74l1.81-0.53v2.27h2.044
		v1.202h-2.044v3.617c0,0.234,0.02,0.419,0.057,0.563c0.037,0.141,0.097,0.261,0.17,0.354c0.076,0.093,0.205,0.164,0.386,0.207
		c0.183,0.042,0.378,0.072,0.591,0.087c0.215,0.012,0.513,0.021,0.9,0.021V14.269z"/>
	<path fill="#FFFFFF" d="M90.95,14.442c-0.636,0-1.203-0.108-1.708-0.325c-0.503-0.218-0.907-0.507-1.212-0.869
		c-0.307-0.362-0.537-0.767-0.693-1.209c-0.158-0.445-0.237-0.914-0.237-1.401c0-0.516,0.08-1.008,0.243-1.473
		c0.162-0.468,0.401-0.891,0.714-1.27c0.313-0.38,0.726-0.681,1.239-0.906c0.512-0.223,1.096-0.337,1.745-0.337
		c0.945,0,1.672,0.327,2.183,0.979V6.84h1.852v7.435h-1.9v-1.013C92.608,14.05,91.866,14.442,90.95,14.442 M91.187,12.994
		c0.73,0,1.266-0.221,1.597-0.664c0.333-0.442,0.501-1.031,0.501-1.77c0-0.76-0.177-1.358-0.531-1.796
		c-0.352-0.438-0.887-0.656-1.604-0.656c-0.703,0-1.24,0.221-1.612,0.661c-0.375,0.438-0.562,1.031-0.562,1.776
		c0,0.743,0.187,1.338,0.562,1.782C89.909,12.772,90.461,12.994,91.187,12.994"/>
	<path fill="#FFFFFF" d="M96.733,3.723h1.83v1.579h-1.83V3.723z M96.74,6.84h1.823v7.436H96.74V6.84z"/>
	<path fill="#FFFFFF" d="M100.382,14.276V9.674c0-0.527-0.012-1.026-0.036-1.497c-0.026-0.473-0.05-0.811-0.076-1.018l-0.04-0.32
		h2.007v0.994c0.269-0.388,0.63-0.681,1.077-0.883c0.451-0.199,0.886-0.3,1.309-0.3c0.453,0,0.848,0.056,1.189,0.172
		c0.338,0.114,0.641,0.296,0.902,0.55c0.262,0.252,0.463,0.602,0.6,1.046c0.138,0.445,0.207,0.983,0.207,1.617v4.24h-1.893V9.915
		c0-0.657-0.109-1.123-0.325-1.396c-0.215-0.273-0.572-0.41-1.069-0.41c-0.186,0-0.383,0.041-0.602,0.115
		c-0.22,0.079-0.434,0.187-0.637,0.322c-0.207,0.138-0.379,0.32-0.516,0.546c-0.138,0.224-0.207,0.471-0.207,0.734v4.451H100.382z"
		/>
	<path fill="#FFFFFF" d="M112.716,14.442c-0.637,0-1.205-0.108-1.707-0.325c-0.503-0.218-0.908-0.507-1.211-0.869
		c-0.309-0.362-0.541-0.767-0.695-1.209c-0.159-0.445-0.236-0.914-0.236-1.401c0-0.516,0.08-1.008,0.245-1.473
		c0.16-0.468,0.399-0.891,0.71-1.27c0.314-0.38,0.728-0.681,1.24-0.906c0.514-0.223,1.098-0.337,1.745-0.337
		c0.945,0,1.673,0.327,2.183,0.979V6.84h1.851v7.435h-1.898v-1.013C114.374,14.05,113.632,14.442,112.716,14.442 M112.952,12.994
		c0.733,0,1.266-0.221,1.597-0.664c0.335-0.442,0.501-1.031,0.501-1.77c0-0.76-0.176-1.358-0.53-1.796
		c-0.353-0.438-0.888-0.656-1.604-0.656c-0.701,0-1.239,0.221-1.612,0.661c-0.374,0.438-0.56,1.031-0.56,1.776
		c0,0.743,0.186,1.338,0.56,1.782C111.676,12.772,112.226,12.994,112.952,12.994"/>
	<path fill="#FFFFFF" d="M122.784,14.442c-0.523,0-0.998-0.105-1.428-0.323c-0.43-0.213-0.74-0.47-0.928-0.763v0.919h-1.938
		c0.01-0.327,0.02-0.62,0.03-0.876c0.013-0.254,0.021-0.438,0.024-0.547c0.005-0.108,0.008-0.204,0.01-0.284
		c0.004-0.079,0.006-0.133,0.006-0.161v-0.103V3.717h1.876v4.166c0.026-0.087,0.089-0.193,0.189-0.319
		c0.103-0.125,0.245-0.259,0.432-0.401c0.185-0.144,0.44-0.264,0.763-0.362s0.676-0.149,1.063-0.149c1.1,0,1.965,0.36,2.602,1.08
		c0.636,0.721,0.953,1.651,0.953,2.791c0,0.57-0.099,1.101-0.296,1.594c-0.196,0.494-0.457,0.911-0.789,1.248
		c-0.329,0.34-0.716,0.604-1.161,0.794C123.746,14.347,123.279,14.442,122.784,14.442 M122.434,12.994
		c0.351,0,0.659-0.065,0.926-0.199c0.269-0.133,0.479-0.316,0.634-0.548c0.156-0.232,0.271-0.488,0.353-0.768
		c0.077-0.281,0.118-0.583,0.118-0.907c0-0.715-0.169-1.305-0.506-1.768c-0.334-0.463-0.822-0.696-1.464-0.696
		c-0.665,0-1.193,0.233-1.584,0.699c-0.392,0.468-0.589,1.046-0.589,1.738c0,0.44,0.076,0.84,0.227,1.199
		c0.147,0.36,0.389,0.66,0.712,0.896C121.585,12.875,121.978,12.994,122.434,12.994"/>
	<rect x="127.877" y="3.715" fill="#FFFFFF" width="1.867" height="10.562"/>
	<path fill="#FFFFFF" d="M135.411,14.442c-1.314,0-2.354-0.357-3.113-1.072c-0.758-0.713-1.142-1.648-1.142-2.805
		c0-0.521,0.093-1.017,0.277-1.485c0.181-0.47,0.439-0.885,0.771-1.247c0.335-0.361,0.757-0.651,1.269-0.862
		c0.51-0.214,1.075-0.32,1.693-0.32c0.621,0,1.163,0.101,1.625,0.305c0.463,0.204,0.83,0.487,1.098,0.852
		c0.271,0.365,0.469,0.775,0.599,1.227c0.129,0.456,0.194,0.958,0.194,1.509c0,0.141-0.012,0.247-0.037,0.318h-5.489
		c0.03,0.725,0.264,1.26,0.696,1.607c0.436,0.351,1.013,0.524,1.734,0.524c0.846,0,1.668-0.267,2.472-0.797l0.511,1.305
		c-0.494,0.324-0.99,0.56-1.491,0.713C136.579,14.366,136.022,14.442,135.411,14.442 M133.179,9.666h3.887
		c-0.09-0.526-0.296-0.93-0.615-1.209c-0.322-0.281-0.712-0.422-1.174-0.422c-0.543,0-0.999,0.146-1.367,0.436
		C133.546,8.761,133.302,9.159,133.179,9.666"/>
	<polygon fill="#FFFFFF" points="59.375,28.119 59.375,19.147 55.953,19.147 55.953,17.565 64.789,17.565 64.789,19.147 
		61.312,19.147 61.312,28.119 	"/>
	<path fill="#FFFFFF" d="M69.48,28.284c-1.314,0-2.354-0.356-3.112-1.069c-0.76-0.716-1.142-1.65-1.142-2.808
		c0-0.521,0.093-1.015,0.276-1.483c0.181-0.471,0.44-0.885,0.772-1.247c0.334-0.362,0.756-0.652,1.267-0.863
		c0.512-0.214,1.076-0.319,1.695-0.319c0.621,0,1.161,0.101,1.623,0.305c0.463,0.204,0.83,0.487,1.099,0.852
		c0.271,0.364,0.468,0.774,0.601,1.228c0.127,0.455,0.191,0.958,0.191,1.508c0,0.141-0.012,0.246-0.035,0.32h-5.49
		c0.029,0.725,0.265,1.26,0.696,1.605c0.436,0.35,1.014,0.523,1.735,0.523c0.845,0,1.666-0.266,2.471-0.797l0.511,1.305
		c-0.492,0.324-0.991,0.563-1.49,0.715C70.648,28.209,70.094,28.284,69.48,28.284 M67.249,23.51h3.885
		c-0.089-0.526-0.295-0.931-0.614-1.209c-0.321-0.283-0.712-0.423-1.174-0.423c-0.544,0-0.999,0.146-1.366,0.435
		C67.615,22.604,67.372,23.001,67.249,23.51"/>
	<polygon fill="#FFFFFF" points="73.214,28.119 76.036,24.495 73.344,20.683 75.446,20.683 77.136,23.083 79.007,20.683 
		80.962,20.683 78.2,24.249 80.978,28.119 78.88,28.119 77.109,25.662 75.204,28.119 	"/>
	<path fill="#FFFFFF" d="M86.218,28.111h-0.762c-0.305,0-0.57-0.008-0.795-0.022c-0.223-0.011-0.451-0.046-0.688-0.093
		s-0.438-0.113-0.604-0.191c-0.164-0.08-0.321-0.188-0.476-0.324c-0.153-0.135-0.274-0.297-0.366-0.488
		c-0.092-0.19-0.164-0.418-0.217-0.686c-0.053-0.264-0.082-0.568-0.082-0.913v-3.507H80.6v-1.202h1.706v-1.741l1.809-0.53v2.271
		h2.043v1.202h-2.043v3.616c0,0.234,0.019,0.42,0.057,0.563c0.039,0.142,0.096,0.262,0.172,0.355s0.203,0.162,0.385,0.205
		c0.181,0.043,0.377,0.074,0.592,0.089c0.213,0.013,0.512,0.021,0.898,0.021V28.111z"/>
	<path fill="#FFFFFF" d="M87.337,17.565h1.83v1.579h-1.83V17.565z M87.343,20.683h1.824v7.436h-1.824V20.683z"/>
	<rect x="90.862" y="17.559" fill="#FFFFFF" width="1.867" height="10.561"/>
	<path fill="#FFFFFF" d="M98.399,28.284c-1.315,0-2.354-0.356-3.113-1.069c-0.76-0.716-1.142-1.65-1.142-2.808
		c0-0.521,0.093-1.015,0.276-1.483c0.182-0.471,0.44-0.885,0.771-1.247c0.335-0.362,0.757-0.652,1.268-0.863
		c0.512-0.214,1.075-0.319,1.694-0.319c0.622,0,1.162,0.101,1.626,0.305c0.462,0.204,0.828,0.487,1.098,0.852
		c0.27,0.364,0.469,0.774,0.6,1.228c0.129,0.455,0.193,0.958,0.193,1.508c0,0.141-0.013,0.246-0.037,0.32h-5.49
		c0.029,0.725,0.265,1.26,0.695,1.605c0.436,0.35,1.014,0.523,1.736,0.523c0.845,0,1.667-0.266,2.473-0.797l0.51,1.305
		c-0.492,0.324-0.992,0.563-1.491,0.715C99.565,28.209,99.011,28.284,98.399,28.284 M96.166,23.51h3.888
		c-0.091-0.526-0.297-0.931-0.615-1.209c-0.322-0.283-0.713-0.423-1.176-0.423c-0.543,0-0.998,0.146-1.365,0.435
		C96.534,22.604,96.289,23.001,96.166,23.51"/>
	<path fill="#FFFFFF" d="M60.617,42.13c-0.761,0-1.495-0.106-2.202-0.321c-0.705-0.211-1.264-0.507-1.67-0.881l0.823-1.321
		c0.361,0.267,0.829,0.491,1.407,0.675c0.576,0.184,1.085,0.277,1.519,0.277c0.688,0,1.195-0.123,1.522-0.365
		c0.329-0.242,0.493-0.609,0.493-1.102c0-0.194-0.017-0.35-0.046-0.467c-0.031-0.121-0.101-0.243-0.206-0.37
		c-0.108-0.129-0.267-0.247-0.479-0.354c-0.211-0.109-0.492-0.224-0.851-0.346c-0.15-0.048-0.409-0.127-0.77-0.238
		c-0.365-0.11-0.633-0.196-0.799-0.254c-0.915-0.326-1.579-0.717-1.991-1.162c-0.41-0.448-0.615-1.053-0.615-1.815
		c0-0.618,0.171-1.149,0.512-1.589c0.346-0.438,0.801-0.762,1.37-0.971c0.569-0.207,1.221-0.313,1.953-0.313
		c0.99,0,1.758,0.094,2.311,0.276c0.547,0.185,1.065,0.499,1.553,0.94l-0.989,1.221c-0.627-0.566-1.492-0.851-2.601-0.851
		c-0.606,0-1.097,0.101-1.477,0.299c-0.376,0.196-0.567,0.499-0.567,0.905c0,0.199,0.018,0.362,0.055,0.488
		c0.036,0.128,0.11,0.254,0.224,0.377c0.114,0.123,0.28,0.236,0.494,0.342c0.213,0.104,0.496,0.217,0.852,0.338
		c0.128,0.043,0.392,0.125,0.796,0.248c0.406,0.124,0.708,0.222,0.902,0.295c0.907,0.342,1.538,0.736,1.892,1.182
		c0.356,0.444,0.536,1.063,0.536,1.855c0,0.525-0.11,0.988-0.33,1.389c-0.219,0.396-0.515,0.711-0.89,0.938
		c-0.378,0.227-0.795,0.396-1.251,0.508C61.639,42.072,61.146,42.13,60.617,42.13"/>
	<path fill="#FFFFFF" d="M69.916,42.127c-0.682,0-1.287-0.102-1.822-0.314c-0.534-0.211-0.964-0.495-1.291-0.854
		c-0.329-0.359-0.578-0.772-0.748-1.231c-0.169-0.463-0.254-0.956-0.254-1.482c0-0.537,0.085-1.037,0.258-1.505
		c0.174-0.466,0.426-0.878,0.759-1.237c0.334-0.362,0.767-0.644,1.296-0.852c0.53-0.209,1.13-0.313,1.796-0.313
		c0.682,0,1.286,0.104,1.814,0.307c0.527,0.206,0.953,0.49,1.271,0.85c0.322,0.36,0.563,0.772,0.723,1.24
		c0.158,0.464,0.24,0.973,0.24,1.523c0,0.52-0.084,1.003-0.253,1.461c-0.169,0.457-0.413,0.867-0.733,1.229
		c-0.324,0.362-0.75,0.648-1.275,0.862C71.17,42.021,70.577,42.127,69.916,42.127 M69.879,40.68c0.372,0,0.696-0.065,0.976-0.199
		c0.279-0.133,0.5-0.317,0.658-0.55c0.161-0.234,0.281-0.496,0.36-0.78c0.077-0.287,0.116-0.597,0.116-0.928
		c0-0.712-0.175-1.293-0.529-1.747c-0.353-0.453-0.877-0.682-1.573-0.682c-0.473,0-0.873,0.112-1.197,0.337
		c-0.323,0.225-0.562,0.516-0.707,0.875c-0.143,0.357-0.217,0.762-0.217,1.217c0,0.451,0.068,0.852,0.202,1.209
		c0.136,0.357,0.367,0.657,0.693,0.893C68.991,40.562,69.395,40.68,69.879,40.68"/>
	<rect x="75.396" y="31.4" fill="#FFFFFF" width="1.867" height="10.563"/>
	<path fill="#FFFFFF" d="M81.85,42.13c-0.945,0-1.683-0.257-2.21-0.772c-0.531-0.516-0.795-1.223-0.795-2.121v-4.712h1.875v4.683
		c0,0.492,0.138,0.861,0.405,1.106c0.27,0.245,0.641,0.367,1.113,0.367c0.564,0,0.982-0.137,1.253-0.403
		c0.275-0.27,0.41-0.701,0.41-1.295v-4.458h1.891v5.437l0.09,2.002h-1.95l-0.03-1.102c-0.024,0.105-0.082,0.222-0.174,0.35
		c-0.088,0.128-0.209,0.267-0.365,0.41c-0.154,0.146-0.365,0.267-0.632,0.362C82.464,42.082,82.169,42.13,81.85,42.13"/>
	<path fill="#FFFFFF" d="M92.055,41.955h-0.761c-0.305,0-0.571-0.008-0.795-0.023c-0.225-0.012-0.451-0.044-0.688-0.092
		c-0.236-0.049-0.439-0.114-0.605-0.191c-0.162-0.081-0.32-0.189-0.475-0.324c-0.154-0.137-0.273-0.297-0.367-0.488
		c-0.091-0.191-0.163-0.421-0.217-0.688c-0.053-0.264-0.08-0.568-0.08-0.912v-3.508h-1.631v-1.201h1.707v-1.74l1.807-0.531v2.271
		h2.045v1.201H89.95v3.616c0,0.233,0.021,0.421,0.059,0.563c0.039,0.141,0.096,0.262,0.172,0.355
		c0.074,0.092,0.203,0.163,0.384,0.205c0.181,0.043,0.378,0.073,0.591,0.088c0.213,0.012,0.513,0.021,0.899,0.021V41.955z"/>
	<path fill="#FFFFFF" d="M93.173,31.408h1.83v1.578h-1.83V31.408z M93.181,34.527h1.822v7.436h-1.822V34.527z"/>
	<path fill="#FFFFFF" d="M100.558,42.127c-0.682,0-1.287-0.102-1.823-0.314c-0.533-0.211-0.963-0.495-1.29-0.854
		c-0.33-0.359-0.579-0.772-0.749-1.231c-0.169-0.463-0.255-0.956-0.255-1.482c0-0.537,0.086-1.037,0.26-1.505
		c0.174-0.466,0.425-0.878,0.76-1.237c0.332-0.362,0.763-0.644,1.295-0.852c0.531-0.209,1.129-0.313,1.795-0.313
		c0.682,0,1.288,0.104,1.815,0.307c0.53,0.206,0.954,0.49,1.274,0.85c0.32,0.36,0.559,0.772,0.719,1.24
		c0.16,0.464,0.24,0.973,0.24,1.523c0,0.52-0.083,1.003-0.252,1.461c-0.168,0.457-0.412,0.867-0.733,1.229
		c-0.325,0.362-0.75,0.648-1.275,0.862C101.813,42.021,101.22,42.127,100.558,42.127 M100.52,40.68c0.373,0,0.696-0.065,0.976-0.199
		c0.279-0.133,0.5-0.317,0.658-0.55c0.162-0.234,0.283-0.496,0.36-0.78c0.079-0.287,0.12-0.597,0.12-0.928
		c0-0.712-0.178-1.293-0.533-1.747c-0.351-0.453-0.876-0.682-1.573-0.682c-0.473,0-0.872,0.112-1.197,0.337
		c-0.323,0.225-0.56,0.516-0.706,0.875c-0.144,0.357-0.217,0.762-0.217,1.217c0,0.451,0.068,0.852,0.202,1.209
		c0.135,0.357,0.366,0.657,0.693,0.893C99.632,40.562,100.038,40.68,100.52,40.68"/>
	<path fill="#FFFFFF" d="M106.159,41.963v-4.602c0-0.529-0.013-1.027-0.039-1.5c-0.023-0.471-0.049-0.809-0.074-1.016l-0.04-0.318
		h2.005v0.992c0.271-0.387,0.63-0.681,1.08-0.883c0.45-0.198,0.885-0.299,1.309-0.299c0.451,0,0.847,0.055,1.188,0.17
		c0.34,0.115,0.643,0.297,0.904,0.553c0.262,0.251,0.463,0.6,0.598,1.045c0.139,0.445,0.206,0.984,0.206,1.617v4.24h-1.891V37.6
		c0-0.656-0.108-1.121-0.323-1.396c-0.217-0.274-0.574-0.41-1.072-0.41c-0.184,0-0.382,0.041-0.602,0.115
		c-0.219,0.079-0.432,0.187-0.636,0.324c-0.206,0.137-0.38,0.317-0.516,0.544c-0.138,0.223-0.206,0.471-0.206,0.734v4.451H106.159z"
		/>
	<path fill="#FFFFFF" d="M117.89,42.13c-0.686,0-1.316-0.094-1.891-0.278c-0.573-0.183-1.031-0.4-1.373-0.658l0.473-1.29
		c0.322,0.237,0.725,0.432,1.213,0.583c0.486,0.154,0.957,0.229,1.41,0.229c0.422,0,0.742-0.068,0.958-0.203
		c0.216-0.137,0.323-0.355,0.323-0.659v-0.131c0-0.152-0.064-0.287-0.189-0.395c-0.129-0.108-0.421-0.233-0.878-0.373l-1.112-0.342
		c-0.287-0.088-0.521-0.169-0.709-0.24c-0.188-0.077-0.383-0.172-0.576-0.287c-0.194-0.117-0.348-0.244-0.456-0.383
		c-0.112-0.137-0.198-0.307-0.268-0.506c-0.071-0.199-0.103-0.432-0.103-0.693c0-0.377,0.074-0.707,0.231-0.993
		c0.155-0.284,0.37-0.509,0.643-0.675c0.274-0.162,0.581-0.286,0.916-0.364c0.337-0.079,0.704-0.12,1.106-0.12
		c0.498,0,0.996,0.061,1.493,0.182c0.498,0.12,0.937,0.297,1.313,0.537l-0.487,1.232c-0.307-0.156-0.664-0.287-1.07-0.393
		c-0.41-0.105-0.779-0.158-1.113-0.158c-0.43,0-0.744,0.051-0.938,0.151c-0.189,0.101-0.288,0.269-0.288,0.499
		c0,0.154,0.03,0.274,0.093,0.363c0.061,0.088,0.186,0.175,0.38,0.269c0.193,0.091,0.503,0.204,0.93,0.34l1.013,0.327
		c0.408,0.131,0.735,0.271,0.98,0.428c0.248,0.152,0.445,0.373,0.598,0.658c0.147,0.287,0.223,0.644,0.223,1.073
		c0,0.331-0.059,0.626-0.171,0.89c-0.116,0.267-0.264,0.486-0.449,0.654c-0.187,0.169-0.406,0.311-0.657,0.421
		c-0.252,0.11-0.508,0.188-0.768,0.235C118.431,42.105,118.164,42.13,117.89,42.13"/>
	<path fill="#FFFFFF" d="M44.497,45H2.134c-0.452,0-0.816-0.364-0.816-0.817V1.819C1.317,1.367,1.682,1,2.134,1h42.363
		c0.452,0,0.817,0.367,0.817,0.819v42.363C45.314,44.636,44.949,45,44.497,45 M2.951,43.364h40.728V2.637H2.951V43.364z"/>
	<path fill="#FFFFFF" d="M36.005,7.811C35.95,7.8,35.866,7.853,35.818,7.926v0.002c-0.312,0.531-0.721,1.043-1.182,1.499
		c-0.46,0.459-0.972,0.859-1.487,1.214c-1.034,0.71-2.102,1.264-3.159,1.785c-1.061,0.521-2.122,1.021-3.191,1.557
		c-1.068,0.541-2.145,1.122-3.221,1.818c-0.537,0.35-1.071,0.724-1.597,1.136c-0.267,0.208-0.524,0.42-0.785,0.649
		c-0.126,0.11-0.25,0.213-0.375,0.333c-0.124,0.115-0.256,0.233-0.378,0.351c-0.997,0.945-1.923,2.024-2.669,3.171
		c-0.373,0.573-0.699,1.162-0.964,1.75c-0.256,0.585-0.46,1.174-0.581,1.734c-0.125,0.564-0.165,1.1-0.132,1.59
		c0.015,0.247,0.053,0.481,0.107,0.703c0.051,0.217,0.096,0.461,0.468,0.409c0.115-0.015,0.256-0.126,0.324-0.264l0.01-0.017
		c0.108-0.215,0.124-0.342,0.124-0.456c0-0.056-0.014-0.103-0.03-0.146l-0.041-0.143c-0.05-0.188-0.084-0.387-0.101-0.598
		c-0.02-0.209-0.015-0.432-0.002-0.659c0.021-0.231,0.047-0.466,0.096-0.706c0.091-0.485,0.257-0.996,0.47-1.512
		c0.217-0.519,0.488-1.041,0.804-1.561c0.641-1.042,1.464-2.052,2.372-2.969c0.114-0.117,0.229-0.225,0.343-0.338
		c0.115-0.113,0.241-0.227,0.361-0.339c0.231-0.214,0.476-0.431,0.722-0.631c0.493-0.408,1.001-0.789,1.517-1.144
		c1.035-0.71,2.092-1.318,3.15-1.879c1.061-0.563,2.123-1.072,3.188-1.612c0.533-0.272,1.068-0.55,1.604-0.85
		c0.537-0.299,1.074-0.622,1.605-0.989c0.533-0.364,1.061-0.782,1.551-1.259c0.421-0.408,0.803-0.866,1.125-1.346
		c0.329,0.842,0.501,1.812,0.479,2.877c-0.02,1.132-0.254,2.375-0.665,3.649c-0.413,1.276-1.008,2.589-1.735,3.882
		c-0.731,1.295-1.6,2.572-2.573,3.779c-0.973,1.205-2.054,2.345-3.198,3.343c-1.142,0.995-2.354,1.852-3.545,2.447
		c-0.596,0.298-1.185,0.533-1.749,0.689c-0.568,0.162-1.108,0.244-1.614,0.25c-0.505,0.006-0.973-0.066-1.399-0.198
		c-0.214-0.069-0.418-0.154-0.606-0.249c-0.094-0.053-0.181-0.096-0.273-0.154l-0.022-0.015c1.135-1.046,2.332-2.1,3.535-3.161
		c1.752-1.544,3.513-3.105,5.114-4.649c0.799-0.772,1.556-1.542,2.256-2.293c0.693-0.751,1.327-1.486,1.879-2.183
		c0.55-0.696,1.021-1.356,1.401-1.946c0.384-0.591,0.677-1.111,0.904-1.541c0.224-0.431,0.379-0.768,0.478-0.996
		c0.098-0.229,0.15-0.35,0.15-0.35s-0.059,0.121-0.167,0.35c-0.108,0.228-0.278,0.565-0.517,0.991
		c-0.245,0.425-0.557,0.94-0.954,1.516c-0.399,0.576-0.886,1.212-1.447,1.884c-0.563,0.667-1.207,1.373-1.912,2.09
		c-0.703,0.714-1.468,1.446-2.274,2.181c-1.615,1.468-3.394,2.947-5.178,4.429c-1.785,1.481-3.583,2.966-5.238,4.474
		c-0.824,0.755-1.617,1.513-2.344,2.271c-0.732,0.758-1.397,1.517-1.974,2.256c-0.582,0.736-1.066,1.453-1.443,2.105
		c-0.383,0.648-0.66,1.227-0.855,1.699c-0.092,0.236-0.177,0.439-0.238,0.634c-0.033,0.093-0.063,0.182-0.089,0.262
		c-0.013,0.04-0.024,0.08-0.037,0.114c-0.01,0.034-0.019,0.061-0.025,0.089c-0.065,0.224-0.099,0.343-0.099,0.343
		c-0.002,0.013-0.007,0.027-0.01,0.039c-0.104,0.434,0.154,0.676,0.576,0.541c0.423-0.133,0.85-0.594,0.953-1.025
		c0,0,0.028-0.115,0.081-0.334c0.005-0.028,0.012-0.059,0.02-0.088c0.007-0.025,0.016-0.055,0.025-0.082
		c0.016-0.059,0.032-0.121,0.053-0.188c0.036-0.131,0.101-0.307,0.165-0.494c0.14-0.376,0.342-0.842,0.636-1.382
		c0.292-0.538,0.675-1.149,1.16-1.808c0.482-0.66,1.063-1.363,1.723-2.088c0.654-0.727,1.389-1.471,2.164-2.226
		c0.051-0.048,0.099-0.093,0.148-0.14l0.245,0.137c0.106,0.059,0.231,0.113,0.347,0.169c0.238,0.101,0.481,0.184,0.742,0.249
		c0.519,0.131,1.089,0.184,1.702,0.148c0.611-0.035,1.268-0.16,1.938-0.379c0.675-0.214,1.365-0.514,2.05-0.884
		c1.372-0.733,2.716-1.736,3.945-2.862c1.233-1.127,2.367-2.38,3.372-3.682c1.003-1.306,1.884-2.668,2.609-4.034
		c0.728-1.368,1.301-2.74,1.684-4.064c0.381-1.323,0.572-2.595,0.542-3.741c-0.029-1.149-0.279-2.167-0.711-3.025h-0.003
		C36.037,7.825,36.024,7.813,36.005,7.811"/>
	<path fill="#FFFFFF" d="M10.235,39.904c-0.158,0-0.3-0.051-0.405-0.148c-0.166-0.156-0.219-0.397-0.15-0.682l0.249-0.828
		c0.064-0.197,0.134-0.366,0.209-0.559l0.047-0.122c0.234-0.563,0.526-1.144,0.871-1.729c0.401-0.691,0.896-1.409,1.457-2.125
		c0.564-0.725,1.233-1.488,1.987-2.273c0.667-0.693,1.436-1.44,2.356-2.277c1.602-1.461,3.363-2.922,5.062-4.333l0.181-0.151
		c1.909-1.581,3.613-3.004,5.171-4.42c0.81-0.736,1.57-1.466,2.27-2.176c0.695-0.706,1.333-1.406,1.9-2.08
		c0.532-0.633,1.015-1.262,1.435-1.868c0.334-0.484,0.643-0.974,0.942-1.5c0.248-0.435,0.416-0.772,0.514-0.978l0.164-0.349
		l0.371,0.166l-0.148,0.352c-0.09,0.21-0.248,0.554-0.484,1.008c-0.287,0.545-0.587,1.054-0.913,1.56
		c-0.407,0.631-0.885,1.292-1.412,1.96c-0.563,0.708-1.198,1.447-1.891,2.195c-0.693,0.747-1.455,1.519-2.265,2.301
		c-1.547,1.493-3.233,2.993-5.121,4.657l-0.048,0.043c-1.09,0.963-2.217,1.955-3.277,2.927l0.052,0.028
		c0.189,0.095,0.383,0.172,0.566,0.229c0.416,0.132,0.867,0.194,1.338,0.188c0.49-0.004,1.017-0.086,1.559-0.238
		c0.549-0.152,1.125-0.382,1.715-0.675c1.129-0.567,2.309-1.379,3.503-2.423c1.11-0.965,2.178-2.082,3.173-3.316
		c0.967-1.197,1.826-2.459,2.554-3.75c0.736-1.305,1.314-2.6,1.718-3.845c0.417-1.292,0.638-2.5,0.657-3.589
		c0.017-0.876-0.097-1.694-0.335-2.433c-0.277,0.37-0.589,0.729-0.922,1.051c-0.462,0.448-0.978,0.868-1.576,1.282
		c-0.483,0.332-1.013,0.658-1.623,0.996c-0.487,0.274-0.997,0.545-1.61,0.854c-0.388,0.197-0.772,0.39-1.159,0.581
		c-0.664,0.33-1.353,0.672-2.024,1.032c-1.229,0.646-2.223,1.238-3.134,1.865c-0.516,0.355-1.02,0.734-1.501,1.132
		c-0.243,0.201-0.485,0.415-0.713,0.624l-0.128,0.118c-0.077,0.074-0.158,0.146-0.23,0.218l-0.122,0.119
		c-0.072,0.07-0.144,0.14-0.214,0.213c-0.952,0.961-1.741,1.949-2.347,2.935c-0.313,0.516-0.578,1.031-0.79,1.533
		c-0.222,0.536-0.374,1.031-0.458,1.469c-0.047,0.245-0.071,0.476-0.093,0.689c-0.01,0.201-0.017,0.422,0.003,0.618
		c0.015,0.204,0.047,0.393,0.096,0.569l0.037,0.137c0.023,0.051,0.037,0.122,0.041,0.196c-0.004,0.144-0.021,0.305-0.146,0.554
		c-0.108,0.211-0.308,0.365-0.491,0.392c-0.543,0.077-0.644-0.344-0.688-0.547c-0.063-0.249-0.102-0.495-0.119-0.755
		c-0.034-0.523,0.011-1.076,0.14-1.647c0.115-0.538,0.314-1.137,0.591-1.773c0.263-0.581,0.59-1.178,0.98-1.78
		c0.729-1.119,1.637-2.198,2.698-3.206c0.081-0.078,0.165-0.156,0.251-0.235l0.131-0.12c0.086-0.078,0.166-0.151,0.249-0.221
		l0.129-0.113c0.28-0.245,0.54-0.458,0.794-0.657c0.482-0.376,1.011-0.754,1.612-1.146c1.188-0.771,2.355-1.383,3.237-1.831
		c0.635-0.317,1.267-0.62,1.895-0.925c0.435-0.208,0.867-0.42,1.3-0.631c0.959-0.473,2.069-1.039,3.136-1.771
		c0.57-0.396,1.048-0.784,1.455-1.189c0.464-0.458,0.86-0.962,1.152-1.461c0.078-0.125,0.239-0.243,0.4-0.213
		c0.08,0.015,0.148,0.063,0.183,0.136c0.461,0.908,0.707,1.954,0.736,3.112c0.033,1.147-0.152,2.428-0.55,3.805
		c-0.383,1.323-0.954,2.7-1.698,4.104c-0.735,1.386-1.621,2.752-2.63,4.062c-1.048,1.363-2.192,2.613-3.395,3.708
		c-1.33,1.218-2.673,2.19-3.988,2.896c-0.708,0.379-1.408,0.682-2.082,0.897c-0.687,0.222-1.357,0.351-1.989,0.387
		c-0.62,0.036-1.214-0.015-1.764-0.153c-0.254-0.063-0.506-0.147-0.77-0.262l-0.116-0.053c-0.086-0.039-0.175-0.08-0.249-0.121
		l-0.118-0.067l-0.035,0.034c-0.85,0.826-1.557,1.551-2.158,2.217c-0.659,0.727-1.234,1.423-1.707,2.068
		c-0.452,0.617-0.84,1.218-1.146,1.788c-0.253,0.468-0.463,0.923-0.623,1.355l-0.046,0.132c-0.045,0.127-0.088,0.248-0.112,0.346
		l-0.18,0.685c-0.12,0.503-0.598,1.019-1.088,1.172C10.419,39.889,10.324,39.904,10.235,39.904 M26.235,21.722
		c-1.199,1.046-2.483,2.117-3.875,3.268l-0.181,0.15c-1.697,1.409-3.455,2.868-5.049,4.32c-0.913,0.832-1.675,1.571-2.336,2.261
		c-0.745,0.774-1.403,1.53-1.959,2.241c-0.553,0.704-1.033,1.402-1.429,2.079c-0.335,0.568-0.615,1.134-0.843,1.678l-0.047,0.12
		c-0.07,0.182-0.136,0.344-0.187,0.498l-0.247,0.8c-0.039,0.163-0.026,0.271,0.026,0.319c0.051,0.047,0.156,0.051,0.283,0.012
		c0.355-0.113,0.728-0.515,0.815-0.879l0.181-0.702c0.028-0.101,0.073-0.228,0.123-0.37l0.045-0.133
		c0.168-0.455,0.388-0.928,0.649-1.412c0.317-0.588,0.712-1.205,1.177-1.834c0.48-0.657,1.063-1.365,1.735-2.104
		c0.606-0.672,1.316-1.402,2.175-2.234l0.257-0.246l0.377,0.216c0.066,0.035,0.146,0.071,0.224,0.108l0.109,0.05
		c0.237,0.101,0.472,0.179,0.706,0.237c0.51,0.127,1.061,0.175,1.64,0.14c0.598-0.032,1.233-0.156,1.891-0.367
		c0.647-0.208,1.324-0.5,2.013-0.867c1.283-0.688,2.598-1.642,3.906-2.836c1.185-1.081,2.311-2.311,3.345-3.656
		c0.996-1.293,1.868-2.64,2.592-4.006c0.73-1.375,1.293-2.728,1.667-4.022c0.384-1.338,0.566-2.575,0.533-3.679
		c0-0.068-0.003-0.135-0.008-0.2c0.005,0.137,0.005,0.278,0.003,0.421c-0.017,1.128-0.245,2.379-0.677,3.708
		c-0.41,1.271-1.001,2.591-1.75,3.92c-0.739,1.31-1.612,2.591-2.592,3.805c-1.012,1.252-2.097,2.386-3.222,3.368
		c-1.222,1.066-2.429,1.899-3.592,2.479c-0.61,0.307-1.212,0.543-1.782,0.703c-0.581,0.166-1.141,0.252-1.666,0.257
		c-0.519,0.002-1.009-0.065-1.464-0.208c-0.206-0.063-0.42-0.151-0.637-0.263l-0.113-0.06c-0.058-0.031-0.118-0.063-0.178-0.101
		l-0.229-0.144l0.176-0.197c1.123-1.031,2.325-2.094,3.49-3.119l0.047-0.043C23.754,23.973,25.036,22.833,26.235,21.722
		 M20.688,18.32c-0.034,0.032-0.07,0.065-0.106,0.101c-1.037,0.984-1.926,2.039-2.637,3.132c-0.377,0.58-0.696,1.163-0.948,1.722
		c-0.267,0.609-0.458,1.18-0.566,1.696c-0.117,0.533-0.163,1.049-0.13,1.531c0.015,0.232,0.05,0.459,0.104,0.662
		c0.058,0.258,0.069,0.286,0.24,0.263c0.041-0.009,0.129-0.071,0.172-0.155c0.104-0.199,0.11-0.294,0.11-0.383
		c0-0.018-0.004-0.04-0.016-0.068l-0.048-0.16c-0.055-0.204-0.09-0.417-0.108-0.639c-0.021-0.222-0.012-0.46-0.002-0.684
		c0.021-0.236,0.047-0.481,0.101-0.74c0.086-0.462,0.249-0.985,0.479-1.546c0.22-0.523,0.494-1.058,0.82-1.591
		c0.622-1.015,1.428-2.025,2.401-3.008C20.598,18.407,20.644,18.364,20.688,18.32"/>
</g>
</svg>
